<svg xmlns="http://www.w3.org/2000/svg">
  <symbol id="icon-switch" viewBox="0 0 512 512"><path d="M434.55,160.16c5.95,0,10.85-1.93,14.7-5.78c3.85-3.85,5.77-8.75,5.77-14.7c0-5.6-1.93-10.42-5.77-14.44c-3.85-4.03-8.75-6.04-14.7-6.04c-5.95,0-10.85,2.01-14.7,6.04c-3.85,4.02-5.77,8.84-5.77,14.44c0,5.95,1.92,10.85,5.77,14.7C423.69,158.24,428.59,160.16,434.55,160.16z M390.96,348.16c12.6,0,23.28-4.46,32.04-13.39c8.75-8.93,13.13-19.69,13.13-32.3c0-6.3-1.14-12.17-3.42-17.6c-2.28-5.42-5.52-10.15-9.71-14.17s-9.01-7.27-14.44-9.71c-5.43-2.45-11.29-3.67-17.59-3.67c-6.3,0-12.17,1.23-17.6,3.67s-10.15,5.69-14.18,9.71s-7.26,8.75-9.71,14.17c-2.45,5.42-3.67,11.29-3.67,17.6c0,6.3,1.23,12.25,3.67,17.85c2.45,5.6,5.69,10.42,9.71,14.44c4.03,4.03,8.75,7.27,14.18,9.71S384.66,348.15,390.96,348.16L390.96,348.16z M326.89,139.68c0,5.95,2.01,10.85,6.04,14.7c4.03,3.85,8.84,5.78,14.44,5.78c5.95,0,10.85-1.93,14.7-5.78c3.85-3.85,5.77-8.75,5.77-14.7c0-5.6-1.92-10.42-5.77-14.44c-3.85-4.03-8.75-6.04-14.7-6.04c-5.6,0-10.41,2.01-14.44,6.04C328.91,129.27,326.89,134.08,326.89,139.68z M390.96,162.79c-5.6,0-10.42,1.93-14.44,5.78c-4.03,3.85-6.04,8.76-6.04,14.71c0,5.6,2.01,10.41,6.04,14.44c4.02,4.03,8.84,6.04,14.44,6.04c5.95,0,10.85-2.01,14.7-6.04c3.85-4.03,5.77-8.84,5.77-14.44c0-5.95-1.92-10.85-5.77-14.71C401.81,164.72,396.91,162.79,390.96,162.79z M390.96,75.62c-5.6,0-10.42,2.01-14.44,6.03c-4.03,4.02-6.04,8.84-6.04,14.44c0,5.95,2.01,10.85,6.04,14.71c4.02,3.85,8.84,5.78,14.44,5.78c5.95,0,10.85-1.93,14.7-5.78c3.85-3.85,5.77-8.75,5.77-14.71c0-5.6-1.92-10.42-5.77-14.44C401.81,77.63,396.91,75.62,390.96,75.62z M381.51,0c14.7,0,28.62,2.89,41.75,8.66c13.13,5.78,24.59,13.57,34.39,23.36c9.8,9.8,17.59,21.27,23.37,34.4c5.77,13.13,8.66,27.22,8.66,42.27v295.13c0,14.7-2.89,28.62-8.66,41.75c-5.78,13.13-13.57,24.59-23.37,34.39c-9.8,9.8-21.27,17.59-34.39,23.37S396.04,512,380.99,512h-86.12c-1.4,0-2.1-0.88-2.1-2.63V2.63c0-1.75,0.7-2.63,2.1-2.63H381.51L381.51,0L381.51,0z M164.63,310.35c5.6,0,10.41-1.92,14.44-5.77s6.04-8.75,6.04-14.7c0-5.6-2.01-10.41-6.04-14.44s-8.84-6.04-14.44-6.04c-5.95,0-10.85,2.01-14.7,6.04s-5.77,8.84-5.77,14.44c0,5.95,1.92,10.85,5.77,14.7S158.68,310.35,164.63,310.35z M121.04,266.77c5.6,0,10.42-1.93,14.45-5.77c4.02-3.85,6.04-8.75,6.04-14.71c0-5.6-2.01-10.41-6.04-14.44c-4.03-4.03-8.84-6.04-14.45-6.04c-5.95,0-10.85,2.01-14.71,6.04c-3.85,4.03-5.78,8.84-5.78,14.44c0,5.95,1.93,10.85,5.78,14.71C110.19,264.84,115.09,266.77,121.04,266.77z M121.04,353.93c5.6,0,10.42-2.01,14.45-6.04c4.02-4.03,6.04-8.84,6.04-14.45c0-5.95-2.01-10.85-6.04-14.7c-4.03-3.85-8.84-5.77-14.45-5.77c-5.95,0-10.85,1.93-14.71,5.77c-3.85,3.85-5.78,8.75-5.78,14.7c0,5.6,1.93,10.42,5.78,14.45C110.19,351.92,115.09,353.93,121.04,353.93z M77.46,310.35c5.95,0,10.85-1.92,14.71-5.77s5.78-8.75,5.78-14.7c0-5.95-1.92-10.85-5.78-14.7c-3.85-3.85-8.75-5.78-14.71-5.78c-5.6,0-10.41,1.93-14.44,5.78c-4.03,3.85-6.04,8.75-6.04,14.7c0,5.95,2.01,10.85,6.04,14.7S71.86,310.35,77.46,310.35zM121.04,81.39c-12.6,0-23.37,4.46-32.29,13.39s-13.39,19.69-13.39,32.29c0,6.3,1.23,12.17,3.68,17.59c2.45,5.42,5.69,10.15,9.72,14.18c4.02,4.03,8.84,7.26,14.44,9.71c5.6,2.45,11.56,3.68,17.85,3.68c6.3,0,12.17-1.22,17.59-3.68c5.43-2.45,10.15-5.69,14.18-9.71c4.02-4.03,7.26-8.75,9.71-14.18c2.45-5.43,3.68-11.29,3.68-17.6c0-6.3-1.23-12.25-3.68-17.85c-2.45-5.6-5.69-10.41-9.71-14.44c-4.02-4.03-8.75-7.26-14.18-9.71C133.21,82.62,127.35,81.39,121.04,81.39z M217.14,0c1.75,0,2.63,0.88,2.63,2.63v506.75c0,1.75-0.88,2.63-2.63,2.63h-86.12c-15.05,0-29.14-2.89-42.27-8.67c-13.13-5.78-24.59-13.57-34.4-23.37c-9.8-9.8-17.59-21.27-23.37-34.39c-5.78-13.13-8.66-27.04-8.66-41.75V108.7c0-15.05,2.89-29.14,8.67-42.27c5.78-13.13,13.57-24.6,23.37-34.4c9.8-9.8,21.27-17.59,34.4-23.36C101.87,2.89,115.97,0,131.02,0L217.14,0L217.14,0L217.14,0z"/></symbol>
  <symbol id="icon-wiiu" viewBox="0 0 512 512"><path d="M443.24,48.32H67.83c-18.58,0-34.53,6.66-47.85,19.98S0,97.57,0,116.15v129.16c0,18.59,6.66,34.54,19.98,47.86c13.32,13.32,29.27,19.98,47.85,19.98h375.41c19.2,0,35.46-6.66,48.78-19.98C505.34,279.85,512,263.9,512,245.31V116.15c0-18.58-6.66-34.53-19.98-47.85S462.44,48.32,443.24,48.32L443.24,48.32L443.24,48.32z M27.88,107.79c0-4.95,1.7-9.14,5.11-12.55c3.41-3.41,7.59-5.11,12.54-5.11c4.96,0,9.14,1.7,12.55,5.11c3.41,3.41,5.11,7.6,5.11,12.55c0,4.95-1.7,9.14-5.11,12.55c-3.41,3.41-7.59,5.11-12.55,5.11c-4.95,0-9.13-1.7-12.54-5.11S27.88,112.75,27.88,107.79z M90.13,170.98c0,0.62-0.31,1.24-0.92,1.86c-0.61,0.61-1.23,0.92-1.86,0.92H75.27v12.08c0,1.24-0.31,2.17-0.93,2.79c-0.62,0.62-1.55,0.93-2.79,0.93h-8.36c-0.62,0-1.4-0.31-2.33-0.93c-0.93-0.62-1.39-1.55-1.39-2.79v-12.08H48.32c-1.24,0-2.17-0.31-2.79-0.92c-0.62-0.61-0.93-1.23-0.93-1.86v-8.37c0-1.23,0.31-2.16,0.93-2.78c0.62-0.62,1.55-0.93,2.79-0.93H60.4v-12.08c0-0.62,0.31-1.24,0.93-1.86c0.62-0.62,1.24-0.93,1.86-0.93h8.36c1.24,0,2.17,0.31,2.79,0.93c0.62,0.62,0.93,1.24,0.93,1.86v12.08h12.08c0.62,0,1.24,0.31,1.86,0.93c0.61,0.62,0.92,1.55,0.92,2.78V170.98L90.13,170.98z M394.92,260.18H116.15V101.29h278.77V260.18z M428.37,176.55c-2.48,0-4.65-0.93-6.5-2.78c-1.86-1.85-2.79-4.02-2.79-6.5s0.93-4.65,2.79-6.5c1.85-1.85,4.02-2.78,6.5-2.78c3.1,0,5.42,0.93,6.97,2.78c1.55,1.85,2.32,4.02,2.32,6.5s-0.77,4.65-2.32,6.5C433.79,175.62,431.47,176.55,428.37,176.55z M448.81,196.07c-3.09,0-5.41-0.93-6.96-2.79c-1.55-1.86-2.33-4.03-2.33-6.51c0-2.47,0.78-4.64,2.33-6.5c1.55-1.86,3.87-2.79,6.96-2.79c2.48,0,4.5,0.93,6.05,2.79c1.55,1.86,2.32,4.03,2.32,6.5c0,2.48-0.77,4.65-2.32,6.51C453.31,195.14,451.29,196.07,448.81,196.07z M448.81,157.04c-3.09,0-5.41-0.93-6.96-2.79c-1.55-1.86-2.33-4.03-2.33-6.5c0-2.48,0.78-4.65,2.33-6.51c1.55-1.86,3.87-2.79,6.96-2.79c2.48,0,4.5,0.93,6.05,2.79c1.55,1.86,2.32,4.03,2.32,6.51c0,2.47-0.77,4.64-2.32,6.5C453.31,156.11,451.29,157.04,448.81,157.04z M468.33,176.55c-3.1,0-5.42-0.93-6.97-2.78c-1.55-1.85-2.33-4.02-2.33-6.5s0.78-4.65,2.33-6.5c1.55-1.85,3.87-2.78,6.97-2.78c2.47,0,4.64,0.93,6.5,2.78c1.86,1.85,2.79,4.02,2.79,6.5s-0.93,4.65-2.79,6.5C472.97,175.62,470.8,176.55,468.33,176.55zM465.54,125.45c-4.34,0-8.37-1.7-12.09-5.11c-3.71-3.41-5.57-7.59-5.57-12.55c0-4.95,1.86-9.14,5.57-12.55c3.71-3.41,7.74-5.11,12.09-5.11c4.95,0,9.29,1.7,13,5.11c3.71,3.41,5.57,7.6,5.57,12.55c0,4.95-1.86,9.14-5.57,12.55C474.83,123.75,470.49,125.45,465.54,125.45z M425.58,355.89H85.49c-8.05,0-14.87,2.94-20.44,8.83c-5.58,5.89-8.37,12.86-8.37,20.91v48.32c0,8.05,2.79,15.02,8.37,20.9c5.57,5.89,12.39,8.83,20.44,8.83h340.09c8.05,0,15.02-2.94,20.91-8.83c5.89-5.88,8.83-12.85,8.83-20.9v-48.32c0-8.05-2.94-15.02-8.83-20.91S433.63,355.89,425.58,355.89L425.58,355.89z M402.35,399.57h-292.7c-4.34,0-7.9-0.93-10.69-2.79c-2.79-1.86-4.18-4.03-4.18-6.51c0-2.47,1.39-4.64,4.18-6.5c2.79-1.86,6.35-2.79,10.69-2.79h292.7c3.72,0,7.13,0.93,10.23,2.79c3.09,1.86,4.64,4.03,4.64,6.5c0,2.48-1.55,4.65-4.64,6.51C409.48,398.64,406.07,399.57,402.35,399.57L402.35,399.57z"/></symbol>
  <symbol id="icon-3ds" viewBox="0 0 512 512"><path d="M443.94,0H69.1C57.23,0,47.29,4.19,39.26,12.56S27.22,30.71,27.22,41.88v208.36h457.56V41.88c0-11.17-4.01-20.94-12.04-29.32C464.71,4.19,455.11,0,443.94,0C443.94,0,443.94,0,443.94,0z M399.97,215.69c0,2.09-0.52,3.66-1.57,4.71c-1.05,1.05-2.62,1.57-4.71,1.57H117.27c-1.4,0-2.8-0.52-4.19-1.57c-1.39-1.05-2.09-2.62-2.09-4.71V55.49c0-2.09,0.7-3.66,2.09-4.71c1.39-1.05,2.79-1.57,4.19-1.57h276.42c2.09,0,3.66,0.52,4.71,1.57c1.05,1.05,1.57,2.62,1.57,4.71V215.69L399.97,215.69z M27.22,263.85v206.27c0,11.87,4.01,21.81,12.04,29.84S57.23,512,69.1,512h374.84c11.17,0,20.77-4.01,28.8-12.04c8.03-8.03,12.04-17.97,12.04-29.84V263.85L27.22,263.85L27.22,263.85L27.22,263.85z M82.72,404.16c-8.38,0-15.36-2.97-20.94-8.9c-5.59-5.93-8.38-12.74-8.38-20.42c0-8.38,2.79-15.54,8.38-21.47c5.59-5.93,12.57-8.9,20.94-8.9s15.53,2.97,21.46,8.9s8.9,13.09,8.9,21.47c0,7.68-2.97,14.49-8.9,20.42S91.09,404.16,82.72,404.16z M369.6,461.74c0,2.09-0.52,3.66-1.57,4.71c-1.05,1.05-2.62,1.57-4.71,1.57H147.63c-1.39,0-2.79-0.52-4.19-1.57c-1.39-1.05-2.09-2.62-2.09-4.71V301.55c0-2.1,0.7-3.67,2.09-4.72c1.39-1.05,2.79-1.57,4.19-1.57h215.69c2.09,0,3.66,0.52,4.71,1.57c1.05,1.05,1.57,2.62,1.57,4.72V461.74L369.6,461.74z M402.06,374.84c-3.49,0-6.28-1.05-8.38-3.14c-2.09-2.09-3.14-4.89-3.14-8.38c0-2.79,1.05-5.41,3.14-7.85c2.09-2.45,4.89-3.67,8.38-3.67c3.49,0,6.29,1.22,8.38,3.67c2.09,2.44,3.14,5.06,3.14,7.85c0,3.49-1.05,6.29-3.14,8.38C408.35,373.79,405.55,374.84,402.06,374.84z M428.24,401.01c-3.49,0-6.46-1.22-8.9-3.66c-2.45-2.44-3.67-5.06-3.67-7.85c0-3.49,1.22-6.29,3.67-8.38c2.44-2.09,5.41-3.14,8.9-3.14c2.79,0,5.41,1.05,7.85,3.14s3.66,4.89,3.66,8.38c0,2.79-1.22,5.41-3.66,7.85S431.03,401.01,428.24,401.01z M428.24,349.71c-3.49,0-6.46-1.22-8.9-3.67c-2.45-2.44-3.67-5.06-3.67-7.85c0-3.49,1.22-6.28,3.67-8.38c2.44-2.09,5.41-3.14,8.9-3.14c2.79,0,5.41,1.05,7.85,3.14c2.44,2.09,3.66,4.89,3.66,8.38c0,2.79-1.22,5.41-3.66,7.85C433.65,348.49,431.03,349.71,428.24,349.71z M453.37,374.84c-3.49,0-6.29-1.05-8.38-3.14c-2.09-2.09-3.14-4.89-3.14-8.38c0-2.79,1.05-5.41,3.14-7.85c2.09-2.45,4.89-3.67,8.38-3.67c3.49,0,6.28,1.22,8.37,3.67c2.09,2.44,3.14,5.06,3.14,7.85c0,3.49-1.05,6.29-3.14,8.38C459.65,373.79,456.86,374.84,453.37,374.84z"/></symbol>
  <symbol id="icon-wii" viewBox="0 0 512 512"><path d="M416.13,504.5c0,2.15-0.71,3.93-2.14,5.36c-1.43,1.43-2.85,2.14-4.28,2.14H280.1c-1.43,0-2.86-0.71-4.29-2.14c-1.43-1.43-2.14-3.21-2.14-5.36v-95.33c0-2.14,0.71-3.93,2.14-5.36c1.43-1.43,2.86-2.14,4.29-2.14h129.61c1.43,0,2.85,0.71,4.28,2.14c1.43,1.43,2.14,3.21,2.14,5.36L416.13,504.5L416.13,504.5L416.13,504.5z M395.78,0h-78.19c-2.14,0-4.64,0-7.49,0c-2.86,0-5,0-6.43,0h-9.64c-2.15,0-3.93,0.71-5.36,2.14c-1.43,1.43-2.14,2.86-2.14,4.29v378.11c0,1.43,0.71,2.85,2.14,4.28c1.43,1.43,3.21,2.14,5.36,2.14h101.75c2.15,0,3.93-0.71,5.36-2.14c1.43-1.43,2.14-2.85,2.14-4.28V6.43c0-1.43-0.71-2.86-2.14-4.29C399.71,0.71,397.93,0,395.78,0C395.78,0,395.78,0,395.78,0z M377.57,348.12c0,4.28-1.07,7.85-3.21,10.71c-2.14,2.85-4.64,4.28-7.5,4.28c-2.14,0-4.28-1.43-6.43-4.28c-2.14-2.86-3.21-6.43-3.21-10.71V53.56c0-3.57,1.07-6.97,3.21-10.18c2.14-3.21,4.28-4.82,6.43-4.82c2.86,0,5.36,1.61,7.5,4.82c2.14,3.21,3.21,6.61,3.21,10.18V348.12zM181.56,115.68h-71.77c-3.57,0-6.78,1.43-9.64,4.28c-2.85,2.85-4.28,6.07-4.28,9.65V497c0,4.29,1.43,7.86,4.28,10.72c2.85,2.85,6.07,4.28,9.64,4.28h71.77c3.57,0,6.78-1.43,9.63-4.28c2.85-2.86,4.28-6.43,4.28-10.72V129.61c0-3.57-1.43-6.79-4.28-9.65C188.34,117.11,185.13,115.68,181.56,115.68L181.56,115.68L181.56,115.68z M145.14,455.23c-2.86,0-5.36-1.07-7.5-3.22c-2.14-2.14-3.21-4.99-3.21-8.56c0-2.86,1.07-5.36,3.21-7.5c2.14-2.14,4.64-3.21,7.5-3.21c3.57,0,6.42,1.07,8.56,3.21c2.15,2.14,3.22,4.64,3.22,7.5c0,3.57-1.07,6.42-3.22,8.56C151.56,454.16,148.71,455.23,145.14,455.23zM145.14,418.81c-2.86,0-5.36-1.07-7.5-3.21c-2.14-2.15-3.21-4.65-3.21-7.5s1.07-5.35,3.21-7.5c2.14-2.15,4.64-3.22,7.5-3.22c3.57,0,6.42,1.07,8.56,3.22c2.15,2.14,3.22,4.64,3.22,7.5c0,2.85-1.07,5.35-3.22,7.5C151.56,417.74,148.71,418.81,145.14,418.81zM145.14,257.07c-4.29,0-8.04-1.61-11.25-4.82c-3.21-3.21-4.82-7.32-4.82-12.32c0-4.28,1.61-8.03,4.82-11.24c3.21-3.21,6.96-4.82,11.25-4.82c5,0,8.93,1.61,11.79,4.82c2.85,3.21,4.28,6.96,4.28,11.24c0,5-1.43,9.11-4.28,12.32C154.07,255.46,150.14,257.07,145.14,257.07z M168.7,184.23c0,0.72-0.36,1.44-1.07,2.15c-0.71,0.71-1.43,1.07-2.14,1.07h-11.78v12.85c0,0.71-0.36,1.43-1.08,2.14c-0.71,0.71-1.79,1.07-3.22,1.07h-8.57c-0.71,0-1.43-0.36-2.14-1.07c-0.71-0.71-1.07-1.43-1.07-2.14v-12.85h-11.78c-1.43,0-2.32-0.36-2.68-1.07c-0.36-0.71-0.54-1.43-0.54-2.15v-8.56c0-0.72,0.18-1.44,0.54-2.15c0.36-0.71,1.25-1.07,2.68-1.07h11.78V159.6c0-0.71,0.36-1.43,1.07-2.15c0.71-0.71,1.43-1.07,2.14-1.07h8.57c1.43,0,2.5,0.36,3.22,1.07c0.72,0.72,1.08,1.44,1.08,2.15v12.85h11.78c0.71,0,1.43,0.36,2.14,1.07c0.71,0.71,1.07,1.43,1.07,2.15L168.7,184.23L168.7,184.23L168.7,184.23z"/></symbol>
  <symbol id="icon-ds" viewBox="0 0 512 512"><path d="M485.28,0H25.65c-4.27,0-8.01,1.6-11.22,4.81s-4.81,6.95-4.81,11.22v208.44h62c2.13,0,3.91,0.71,5.34,2.14c1.43,1.42,2.14,3.2,2.14,5.34v29.93h358.08v-29.93c0-2.14,0.53-3.92,1.6-5.34c1.07-1.43,2.67-2.14,4.81-2.14h58.79V16.03c0-4.27-1.6-8.01-4.81-11.22C494.36,1.6,490.27,0,485.28,0L485.28,0L485.28,0z M361.29,200.95H151.78V44.89h209.51V200.95zM485.28,239.43h-34.21v28.86c0,2.14-0.71,3.92-2.13,5.34c-1.42,1.42-3.2,2.13-5.35,2.13H71.62c-2.14,0-3.74-0.71-4.81-2.13c-1.07-1.42-1.61-3.2-1.61-5.34v-28.86H25.65c-4.27,0-8.01,1.6-11.22,4.81s-4.81,6.95-4.81,11.23v240.5c0,4.27,1.6,8.01,4.81,11.22S21.38,512,25.65,512h459.63c4.99,0,9.08-1.6,12.29-4.81c3.21-3.21,4.81-6.95,4.81-11.22v-240.5c0-4.28-1.6-8.02-4.81-11.23C494.36,241.03,490.27,239.43,485.28,239.43L485.28,239.43L485.28,239.43z M112.23,390.15H87.65v24.58H62v-24.58H37.41v-25.66H62v-24.58h25.65v24.58h24.58V390.15z M361.29,460.69H151.78V303.57h209.51V460.69L361.29,460.69z M402.97,379.46c-3.56,0-6.77-1.42-9.62-4.27s-4.28-6.06-4.28-9.63c0-4.27,1.43-7.66,4.28-10.15c2.85-2.49,6.05-3.74,9.62-3.74c4.28,0,7.67,1.25,10.16,3.74c2.49,2.49,3.74,5.88,3.74,10.15c0,3.57-1.25,6.78-3.74,9.63C410.64,378.04,407.25,379.46,402.97,379.46z M433.97,410.46c-4.27,0-7.66-1.43-10.15-4.28c-2.49-2.85-3.74-6.06-3.74-9.62c0-4.27,1.25-7.84,3.74-10.69c2.49-2.85,5.88-4.28,10.15-4.28c3.57,0,6.78,1.43,9.63,4.28c2.85,2.85,4.27,6.42,4.27,10.69c0,3.56-1.42,6.77-4.27,9.62C440.75,409.03,437.54,410.46,433.97,410.46L433.97,410.46z M433.97,348.46c-4.27,0-7.66-1.25-10.15-3.74c-2.49-2.49-3.74-5.88-3.74-10.16c0-3.56,1.25-6.76,3.74-9.61c2.49-2.85,5.88-4.28,10.15-4.28c3.57,0,6.78,1.43,9.63,4.28c2.85,2.85,4.27,6.05,4.27,9.61c0,4.28-1.42,7.67-4.27,10.16C440.75,347.21,437.54,348.46,433.97,348.46z M464.97,379.46c-4.27,0-7.84-1.42-10.69-4.27s-4.28-6.06-4.28-9.63c0-4.27,1.43-7.66,4.28-10.15c2.85-2.49,6.42-3.74,10.69-3.74c3.56,0,6.77,1.25,9.62,3.74c2.85,2.49,4.27,5.88,4.27,10.15c0,3.57-1.42,6.78-4.27,9.63C471.74,378.04,468.53,379.46,464.97,379.46z"/></symbol>
  <symbol id="icon-other" viewBox="0 0 34 34"><path d="M32 23h-9v9c0 1.1-.9 2-2 2h-8c-1.1 0-2-.9-2-2v-9H2c-1.1 0-2-.9-2-2v-8c0-1.1.9-2 2-2h9V2c0-1.1.9-2 2-2h8c1.1 0 2 .9 2 2v9h9c1.1 0 2 .9 2 2v8c0 1.1-.9 2-2 2zM8 16H4c-.6 0-1 .4-1 1s.4 1 1 1h4c.6 0 1-.4 1-1s-.4-1-1-1zM18 4c0-.6-.4-1-1-1s-1 .4-1 1v4c0 .6.4 1 1 1s1-.4 1-1V4zm0 22c0-.6-.4-1-1-1s-1 .4-1 1v4c0 .6.4 1 1 1s1-.4 1-1v-4zm12-10h-4c-.6 0-1 .4-1 1s.4 1 1 1h4c.6 0 1-.4 1-1s-.4-1-1-1z"/></symbol>
  <symbol id="icon-search" viewBox="0 0 18 18"><path d="M3.125 7.05a3.972 3.972 0 0 1 3.987-3.96 4.283 4.283 0 0 1 4.164 4.14 3.972 3.972 0 0 1-3.987 3.96 4.284 4.284 0 0 1-4.164-4.14zm14.58 8.16l-4.332-4.3a7 7 0 0 0 1.03-3.66A7.445 7.445 0 0 0 7.091-.01 7.065 7.065 0 0 0-.001 7.03a7.445 7.445 0 0 0 7.311 7.26 7.075 7.075 0 0 0 3.57-.96l4.356 4.33a1.084 1.084 0 0 0 1.543 0l.88-.87a1.137 1.137 0 0 0 .046-1.58z"/></symbol>
  <symbol id="icon-wiiu-logo" viewBox="0 0 26.5 26.5"><path d="M13.3,16.5c2,0,3.5-1.6,3.5-4V3.3h-7v9.2C9.8,15,11.3,16.5,13.3,16.5z M23.1,3.3h-3v9.3c0,4.5-2.6,6.9-6.8,6.9s-6.8-2.4-6.8-6.9V3.3h-3C1.3,3.3,0,4.6,0,6.8v11.4c0,3.3,1.7,5,5,5h16.5c3.3,0,5-1.7,5-5V6.8C26.6,4.6,25.3,3.3,23.1,3.3z"/></symbol>
  <symbol id="icon-wii-logo" viewBox="0 0 187.8 187.8"><path d="M140.2,49c-5.8,0-10.6,4.6-10.6,10.2c0,5.6,4.8,10.2,10.6,10.2c6.1,0,10.8-4.5,10.8-10.2S146.2,49,140.2,49zM131.4,138.2h18.1V79.7h-18.1V138.2z M177,69.4c6.1,0,10.8-4.5,10.8-10.2S183.1,49,177,49c-5.8,0-10.6,4.6-10.6,10.2C166.4,64.8,171.2,69.4,177,69.4z M168.2,138.2h18.1V79.7h-18.1V138.2z M86.8,116.1c0,0-12.1-46.7-14.1-53.3c-2-6.6-6-9.5-11.8-9.5c-5.8,0-9.8,2.9-11.8,9.5c-2,6.6-14.1,53.3-14.1,53.3L19.1,53.9H0c0,0,18.3,66.3,20.8,74c1.9,6,6.5,10.9,13.4,10.9c7.8,0,11.4-5.7,13.1-10.9c1.7-5.2,13.6-49,13.6-49s11.9,43.8,13.6,49c1.7,5.2,5.3,10.9,13.1,10.9c6.8,0,11.4-4.9,13.4-10.9c2.5-7.7,20.8-74,20.8-74h-19.2L86.8,116.1z"/></symbol>
  <symbol id="icon-ds-logo" viewBox="0 0 72 72"><path d="M59.8,33.3c-5.7-2-8.9-3.1-8.9-5.5c0-1.6,2.2-3.1,6.9-3.1c4.5,0,7.5,1,10.8,1.8v-4.8c-3.3-0.6-5.1-1-10.4-1c-9.8,0-16.3,3-16.3,7.9c0,4.7,5.3,6.9,12.8,9.6c5.5,2,7.5,3.1,7.5,5.1c0,2.2-2,3.9-7.1,3.9c-4.5,0-10.2-0.8-13.2-2v5.1c3.9,0.6,7.3,1,12.4,1C66.5,51.3,72,47.8,72,43S67.7,36,59.8,33.3z M31.5,23c-3-1.4-8.3-2.2-13.2-2.2H0v30.5h18.3c4.7,0,10.2-0.8,13.2-2.2c7.1-3.1,9.2-8.3,9.2-13C40.9,31.3,38.6,26.2,31.5,23z M15.9,47H10V25h5.9C25,25,30.5,29,30.5,36C30.5,43.3,24.8,47,15.9,47z"/></symbol>
</svg>