<svg xmlns="http://www.w3.org/2000/svg">
  <symbol id="icon-switch" viewBox="0 0 127.3 127.3"><path d="M94.7,0.1H75c-0.5,0-0.8,0.4-0.8,0.8v125.5c-0.1,0.5,0.3,0.9,0.9,0.9h19.6c18,0,32.6-14.6,32.6-32.6v-62C127.3,14.7,112.7,0.1,94.7,0.1z M99.3,82.9c-7.1,0-12.9-5.8-12.9-12.9c0-7.1,5.8-12.9,12.9-12.9c7.1,0,12.9,5.8,12.9,12.9C112.2,77.1,106.4,82.9,99.3,82.9z M19.8,38.2c0,6.6,5.4,12,12,12c6.6,0,12-5.4,12-12c0-6.6-5.4-12-12-12C25.2,26.2,19.8,31.6,19.8,38.2z M60.4,0H32.6C14.6,0,0,14.6,0,32.6v62c0,18,14.6,32.6,32.6,32.6h27.8c0.5,0,0.9-0.4,0.9-0.9V0.9C61.4,0.4,61,0,60.4,0z M51.1,117H32.6c-6,0-11.6-2.3-15.8-6.6c-4.2-4.2-6.6-9.8-6.6-15.8v-62c0-6,2.3-11.6,6.6-15.8c4.2-4.2,9.8-6.6,15.8-6.6h18.5V117z"/></symbol>
  <symbol id="icon-wiiu" viewBox="0 0 1024 1024"><path d="M828.8,821.3H195.3c-26.9,0-52.2-5.1-75.9-15.4S75,781.7,57.3,764c-17.7-17.7-31.7-38.4-41.9-62.1C5.1,678.3,0,653,0,626.1V399c0-26.9,5.1-52.3,15.4-76.4c10.3-24.1,24.2-44.9,41.9-62.6c17.7-17.7,38.4-31.7,62.1-41.9c23.7-10.3,49-15.4,75.9-15.4h633.5c26.9,0,52.2,5.1,75.9,15.4c23.7,10.3,44.4,24.2,62.1,41.9c17.7,17.7,31.7,38.6,41.9,62.6c10.3,24.1,15.4,49.5,15.4,76.4v227.1c0,26.9-5.1,52.2-15.4,75.9c-10.3,23.7-24.2,44.4-41.9,62.1c-17.7,17.7-38.4,31.7-62.1,41.9C880.9,816.2,855.6,821.3,828.8,821.3z M828.8,265.3H195.3c-18.4,0-35.7,3.5-52,10.6s-30.4,16.6-42.4,28.6c-12,12-21.4,26.2-28.1,42.4c-6.7,16.3-10.1,33.6-10.1,52v227.1c0,18.4,3.4,35.7,10.1,52s16.1,30.4,28.1,42.5s26.2,21.4,42.4,28.1c16.3,6.7,33.6,10.1,52,10.1h633.5c18.4,0,35.7-3.4,52-10.1c16.3-6.7,30.4-16.1,42.5-28.1c12-12,21.4-26.2,28.1-42.5c6.7-16.3,10.1-33.6,10.1-52V399c0-18.4-3.4-35.7-10.1-52c-6.7-16.3-16.1-30.4-28.1-42.4c-12-12-26.2-21.6-42.5-28.6C864.5,268.8,847.1,265.3,828.8,265.3z M252.6,345.9h518.9v333.2H252.5L252.6,345.9L252.6,345.9z M144.3,431.9c-15.6,0-28.7-5.5-39.3-16.4c-10.6-11-15.9-24.2-15.9-39.8c0-14.9,5.3-27.8,15.9-38.7c10.6-11,23.7-16.4,39.3-16.4c15.6,0,28.6,5.5,39.3,16.4c10.6,11,15.9,23.9,15.9,38.7c0,15.6-5.3,28.8-15.9,39.8C173,426.4,159.9,431.9,144.3,431.9zM876.5,431.9c-15.6,0-28.5-5.5-38.7-16.4c-10.3-11-15.4-24.2-15.4-39.8c0-14.9,5.1-27.8,15.4-38.7c10.3-11,23.2-16.4,38.7-16.4c15.6,0,28.7,5.5,39.3,16.4c10.6,11,15.9,23.9,15.9,38.7c0,15.6-5.3,28.8-15.9,39.8S892.1,431.9,876.5,431.9z M123.1,495.5h24.4v-22.3c0-5.7,2.5-8.5,7.4-8.5h26.5c5,0,7.4,2.8,7.4,8.5v22.3h22.3c5.7,0,8.5,2.5,8.5,7.4v27.6c0,5-2.8,7.4-8.5,7.4h-22.3v23.4c0,4.9-2.5,7.4-7.4,7.4h-26.5c-5,0-7.4-2.5-7.4-7.4V538h-24.4c-5,0-7.4-2.5-7.4-7.4V503C115.7,498,118.1,495.5,123.1,495.5L123.1,495.5z M144.3,345.9c-7.8,0-14.9,3-21.2,9s-9.6,12.9-9.6,20.7c0,8.5,3.2,15.7,9.6,21.8s13.4,9,21.2,9c7.8,0,14.9-3,21.2-9s9.6-13.3,9.6-21.8c0-7.8-3.2-14.7-9.6-20.7S152.1,345.9,144.3,345.9z M876.5,345.9c-7.8,0-14.7,3-20.7,9c-6,6-9,12.9-9,20.7c0,8.5,3,15.7,9,21.8c6,6,12.9,9,20.7,9c8.5,0,15.7-3,21.8-9s9-13.3,9-21.8c0-7.8-3-14.7-9-20.7S885,345.9,876.5,345.9zM511.5,700.3c7.8,0,14.3,2.5,19.6,7.4c5.3,5,8,11.3,8,19.1c0,7.8-2.7,14.2-8,19.1c-5.3,4.9-11.9,7.4-19.6,7.4c-7.8,0-14.3-2.5-19.6-7.4c-5.3-5-8-11.3-8-19.1c0-7.8,2.7-14.1,8-19.1C497.1,702.8,503.7,700.3,511.5,700.3L511.5,700.3zM872.3,558.2c0,14.1-7.1,21.2-21.2,21.2c-13.4,0-20.2-7.1-20.2-21.2c0-13.4,6.7-20.2,20.2-20.2C865.2,538,872.3,544.7,872.3,558.2zM872.3,478.6c0,13.4-7.1,20.2-21.2,20.2c-13.4,0-20.2-6.7-20.2-20.2c0-14.2,6.7-21.2,20.2-21.2C865.2,457.3,872.3,464.4,872.3,478.6z M812.8,539.1c-14.1,0-21.2-6.7-21.2-20.2c0-14.1,7.1-21.2,21.2-21.2c13.4,0,20.2,7.1,20.2,21.2C833,532.3,826.3,539.1,812.8,539.1z M891.4,539.1c-13.4,0-20.2-6.7-20.2-20.2c0-14.1,6.7-21.2,20.2-21.2c14.1,0,21.2,7.1,21.2,21.2C912.6,532.3,905.5,539.1,891.4,539.1z"/></symbol>
  <symbol id="icon-3ds" viewBox="0 0 60 60"><path d="M60 6c0-3.3-2.7-6-6-6H6C2.7 0 0 2.7 0 6v23.6h60V6zM44.8 22.7c0 .7-.6 1.3-1.3 1.3h-27c-.7 0-1.3-.6-1.3-1.3V8.5c0-.7.6-1.3 1.3-1.3h26.9c.7 0 1.3.6 1.3 1.3l.1 14.2zM0 54c0 3.3 2.7 6 6 6h48c3.3 0 6-2.7 6-6V32H0v22zm53.5-14c.9 0 1.7.8 1.7 1.7 0 .9-.8 1.7-1.7 1.7-.9 0-1.7-.8-1.7-1.7-.1-.9.7-1.7 1.7-1.7M50 36.6c.9 0 1.7.8 1.7 1.7 0 .9-.8 1.7-1.7 1.7-.9 0-1.7-.8-1.7-1.7 0-1 .7-1.7 1.7-1.7m0 6.9c.9 0 1.7.8 1.7 1.7 0 .9-.8 1.7-1.7 1.7-.9 0-1.7-.8-1.7-1.7 0-.9.7-1.7 1.7-1.7M46.5 40c.9 0 1.7.8 1.7 1.7 0 .9-.8 1.7-1.7 1.7-.9 0-1.7-.8-1.7-1.7 0-.9.8-1.7 1.7-1.7m-27.3-1.1c0-.7.6-1.3 1.3-1.3h19c.7 0 1.3.5 1.3 1.3v13.5c0 .7-.6 1.3-1.3 1.3h-19c-.7 0-1.3-.5-1.3-1.3V38.9zm-9.4-1.1c2.2 0 4 1.8 4 4s-1.8 4-4 4-4-1.8-4-4 1.8-4 4-4"/></symbol>
  <symbol id="icon-wii" viewBox="0 0 1024 1024"><path d="M615.53 1024 l-207.06 0 q-24.73 0 -42.75 -17.51 q-18.03 -17.51 -18.03 -42.24 l0 -903.47 q0 -24.72 18.03 -42.75 q18.02 -18.03 42.75 -18.03 l207.06 0 q25.76 0 43.27 18.03 q17.51 18.03 17.51 42.75 l0 903.47 q0 24.72 -17.51 42.24 q-17.51 17.51 -43.27 17.51 ZM612.44 63.87 l-200.88 0 l0 896.26 l200.88 0 l0 -896.26 ZM584.63 169.98 l0 43.27 q0 3.09 -3.09 3.09 l-41.21 0 q-3.09 0 -3.09 3.09 l0 40.18 q0 3.09 -4.12 3.09 l-43.27 0 q-3.09 0 -3.09 -3.09 l0 -40.18 q0 -3.09 -3.09 -3.09 l-40.18 0 q-4.12 0 -4.12 -3.09 l0 -43.27 q0 -4.12 4.12 -4.12 l40.18 0 q3.09 0 3.09 -3.09 l0 -40.18 q0 -3.09 3.09 -3.09 l43.27 0 q4.12 0 4.12 3.09 l0 40.18 q0 3.09 3.09 3.09 l41.21 0 q3.09 0 3.09 4.12 ZM552.69 378.08 q0 17.51 -11.33 29.35 q-11.33 11.85 -28.84 11.85 q-18.55 0 -29.88 -11.85 q-11.33 -11.84 -11.33 -29.35 q0 -17.52 11.33 -28.85 q11.33 -11.33 29.88 -11.33 q17.51 0 28.84 11.33 q11.33 11.33 11.33 28.85 ZM537.24 736.58 q0 10.3 -7.21 18.02 q-7.21 7.73 -17.51 7.73 q-10.31 0 -18.03 -7.73 q-7.73 -7.73 -7.73 -18.02 q0 -10.3 7.73 -18.03 q7.72 -7.73 18.03 -7.73 q10.3 0 17.51 7.73 q7.21 7.73 7.21 18.03 ZM537.24 837.54 q0 11.33 -7.21 18.54 q-7.21 7.21 -17.51 7.21 q-10.31 0 -18.03 -7.21 q-7.73 -7.21 -7.73 -18.54 q0 -10.3 7.73 -17.51 q7.72 -7.22 18.03 -7.22 q10.3 0 17.51 7.22 q7.21 7.22 7.21 17.51 ZM451.73 524.36 q18.55 0 18.55 19.58 q0 18.54 -18.55 18.54 q-19.57 0 -19.57 -18.54 q0 -19.58 19.57 -19.58 ZM512.52 524.36 q18.54 0 18.54 19.58 q0 18.54 -18.54 18.54 q-18.55 0 -18.55 -18.54 q0 -19.58 18.55 -19.58 ZM572.27 524.36 q19.57 0 19.57 19.58 q0 18.54 -19.57 18.54 q-18.55 0 -18.55 -18.54 q0 -19.58 18.55 -19.58 Z"/></symbol>
  <symbol id="icon-ds" viewBox="0 0 30.4 30.4"><path fill="#888" d="M21,16.1H9.4c-1.6,0-3,1.4-3,3v8.3c0,1.6,1.4,3,3,3H21c1.6,0,3-1.4,3-3v-8.3C24.1,17.5,22.8,16.1,21,16.1z M21.6,27.4c0,0.4-0.2,0.6-0.6,0.6H9.6C9.2,28,9,27.8,9,27.4v-8.3c0-0.4,0.2-0.6,0.6-0.6H21c0.4,0,0.6,0.2,0.6,0.6V27.4z"/><path d="M21,0H9.4c-1.6,0-3,1.4-3,3v8.3c0,1.6,1.4,3,3,3H21c1.6,0,3-1.4,3-3V3.1C24.1,1.4,22.8,0,21,0z M21.6,11.4c0,0.4-0.2,0.6-0.6,0.6H9.6C9.2,12,9,11.8,9,11.4V3.1c0-0.4,0.2-0.6,0.6-0.6H21c0.4,0,0.6,0.2,0.6,0.6V11.4z"/></symbol>
  <symbol id="icon-other" viewBox="0 0 34 34"><path d="M32 23h-9v9c0 1.1-.9 2-2 2h-8c-1.1 0-2-.9-2-2v-9H2c-1.1 0-2-.9-2-2v-8c0-1.1.9-2 2-2h9V2c0-1.1.9-2 2-2h8c1.1 0 2 .9 2 2v9h9c1.1 0 2 .9 2 2v8c0 1.1-.9 2-2 2zM8 16H4c-.6 0-1 .4-1 1s.4 1 1 1h4c.6 0 1-.4 1-1s-.4-1-1-1zM18 4c0-.6-.4-1-1-1s-1 .4-1 1v4c0 .6.4 1 1 1s1-.4 1-1V4zm0 22c0-.6-.4-1-1-1s-1 .4-1 1v4c0 .6.4 1 1 1s1-.4 1-1v-4zm12-10h-4c-.6 0-1 .4-1 1s.4 1 1 1h4c.6 0 1-.4 1-1s-.4-1-1-1z"/></symbol>
  <symbol id="icon-search" viewBox="0 0 18 18"><path d="M3.125 7.05a3.972 3.972 0 0 1 3.987-3.96 4.283 4.283 0 0 1 4.164 4.14 3.972 3.972 0 0 1-3.987 3.96 4.284 4.284 0 0 1-4.164-4.14zm14.58 8.16l-4.332-4.3a7 7 0 0 0 1.03-3.66A7.445 7.445 0 0 0 7.091-.01 7.065 7.065 0 0 0-.001 7.03a7.445 7.445 0 0 0 7.311 7.26 7.075 7.075 0 0 0 3.57-.96l4.356 4.33a1.084 1.084 0 0 0 1.543 0l.88-.87a1.137 1.137 0 0 0 .046-1.58z"/></symbol>
  <symbol id="icon-wiiu-logo" viewBox="0 0 26.5 26.5"><path d="M13.3,16.5c2,0,3.5-1.6,3.5-4V3.3h-7v9.2C9.8,15,11.3,16.5,13.3,16.5z M23.1,3.3h-3v9.3c0,4.5-2.6,6.9-6.8,6.9s-6.8-2.4-6.8-6.9V3.3h-3C1.3,3.3,0,4.6,0,6.8v11.4c0,3.3,1.7,5,5,5h16.5c3.3,0,5-1.7,5-5V6.8C26.6,4.6,25.3,3.3,23.1,3.3z"/></symbol>
  <symbol id="icon-wii-logo" viewBox="0 0 187.8 187.8"><path d="M140.2,49c-5.8,0-10.6,4.6-10.6,10.2c0,5.6,4.8,10.2,10.6,10.2c6.1,0,10.8-4.5,10.8-10.2S146.2,49,140.2,49zM131.4,138.2h18.1V79.7h-18.1V138.2z M177,69.4c6.1,0,10.8-4.5,10.8-10.2S183.1,49,177,49c-5.8,0-10.6,4.6-10.6,10.2C166.4,64.8,171.2,69.4,177,69.4z M168.2,138.2h18.1V79.7h-18.1V138.2z M86.8,116.1c0,0-12.1-46.7-14.1-53.3c-2-6.6-6-9.5-11.8-9.5c-5.8,0-9.8,2.9-11.8,9.5c-2,6.6-14.1,53.3-14.1,53.3L19.1,53.9H0c0,0,18.3,66.3,20.8,74c1.9,6,6.5,10.9,13.4,10.9c7.8,0,11.4-5.7,13.1-10.9c1.7-5.2,13.6-49,13.6-49s11.9,43.8,13.6,49c1.7,5.2,5.3,10.9,13.1,10.9c6.8,0,11.4-4.9,13.4-10.9c2.5-7.7,20.8-74,20.8-74h-19.2L86.8,116.1z"/></symbol>
  <symbol id="icon-ds-logo" viewBox="0 0 72 72"><path d="M59.8,33.3c-5.7-2-8.9-3.1-8.9-5.5c0-1.6,2.2-3.1,6.9-3.1c4.5,0,7.5,1,10.8,1.8v-4.8c-3.3-0.6-5.1-1-10.4-1c-9.8,0-16.3,3-16.3,7.9c0,4.7,5.3,6.9,12.8,9.6c5.5,2,7.5,3.1,7.5,5.1c0,2.2-2,3.9-7.1,3.9c-4.5,0-10.2-0.8-13.2-2v5.1c3.9,0.6,7.3,1,12.4,1C66.5,51.3,72,47.8,72,43S67.7,36,59.8,33.3z M31.5,23c-3-1.4-8.3-2.2-13.2-2.2H0v30.5h18.3c4.7,0,10.2-0.8,13.2-2.2c7.1-3.1,9.2-8.3,9.2-13C40.9,31.3,38.6,26.2,31.5,23z M15.9,47H10V25h5.9C25,25,30.5,29,30.5,36C30.5,43.3,24.8,47,15.9,47z"/></symbol>
</svg>